<?xml version="1.0" standalone="no"?>
<!DOCTYPE svg PUBLIC "-//W3C//DTD SVG 20010904//EN"
 "http://www.w3.org/TR/2001/REC-SVG-20010904/DTD/svg10.dtd">
<svg version="1.0" xmlns="http://www.w3.org/2000/svg"
 width="1024.000000pt" height="1024.000000pt" viewBox="0 0 1024.000000 1024.000000"
 preserveAspectRatio="xMidYMid meet">
<metadata>
Created by potrace 1.16, written by Peter Selinger 2001-2019
</metadata>
<g transform="translate(0.000000,1024.000000) scale(0.100000,-0.100000)"
fill="#000000" stroke="none">
<path d="M4725 8545 c-309 -44 -511 -101 -761 -217 -256 -118 -488 -260 -625
-381 l-54 -48 60 22 c49 18 84 23 185 24 l126 1 53 42 c60 47 214 136 334 192
175 82 465 165 663 191 136 18 490 15 621 -5 302 -46 644 -173 890 -329 40
-25 43 -26 77 -12 121 51 256 -38 256 -167 0 -22 1 -22 36 -3 57 30 126 15
183 -38 41 -39 61 -84 61 -137 0 -34 3 -40 20 -40 29 0 75 -25 121 -67 80 -72
86 -120 35 -249 -28 -69 -31 -84 -17 -82 21 5 46 -32 114 -172 110 -224 181
-477 206 -734 18 -182 14 -463 -9 -602 -56 -343 -179 -655 -371 -941 l-88
-131 63 -56 64 -56 66 90 c202 273 352 600 417 905 59 279 65 702 15 990 -35
203 -94 393 -184 593 -83 182 -157 302 -291 468 -36 45 -94 120 -128 167 -35
47 -75 95 -90 107 -501 386 -892 574 -1388 666 -125 23 -522 28 -660 9z"/>
<path d="M6156 7753 c-83 -82 -283 -274 -444 -428 -298 -285 -367 -361 -408
-450 -31 -67 -47 -174 -39 -265 5 -70 4 -78 -24 -125 -16 -27 -58 -79 -93
-115 -35 -36 -76 -80 -91 -99 l-27 -33 -48 38 c-86 70 -268 258 -296 307 l-28
48 16 64 c46 185 0 389 -132 575 -62 88 -220 241 -312 302 -106 70 -279 153
-385 184 -130 38 -300 44 -414 16 -149 -38 -207 -88 -249 -217 -60 -182 -29
-406 89 -636 126 -246 326 -448 549 -553 150 -70 295 -91 460 -65 49 7 75 7
89 0 11 -6 66 -64 122 -129 57 -64 123 -139 148 -165 l46 -48 -125 -122 c-212
-207 -840 -804 -1189 -1131 -58 -55 -126 -112 -150 -127 -74 -48 -241 -255
-268 -332 -25 -75 -23 -181 5 -234 47 -89 146 -139 261 -131 106 8 161 41 309
188 270 269 537 547 783 815 141 154 330 357 420 450 90 94 187 197 216 230
l52 60 77 -75 c90 -89 499 -521 634 -670 426 -471 876 -923 955 -960 133 -61
247 -47 341 42 37 35 60 67 74 105 25 68 25 112 -3 191 -20 57 -38 79 -191
238 -92 96 -261 256 -375 356 -113 100 -240 213 -281 252 -41 39 -161 147
-265 241 -105 93 -296 272 -426 398 l-237 227 122 119 c131 127 145 135 259
145 112 11 275 81 360 156 27 24 76 79 109 124 34 44 85 108 114 141 29 33 78
92 110 132 33 39 131 152 218 250 88 98 191 213 228 255 78 87 93 128 61 166
-10 13 -34 25 -56 29 -38 6 -39 5 -156 -113 -64 -65 -235 -243 -380 -393
l-263 -275 6 -56 7 -57 -54 -50 c-99 -94 -229 -143 -376 -143 -82 0 -109 -14
-202 -104 -76 -74 -183 -195 -192 -217 -4 -10 -14 -5 -37 19 -30 32 -30 33
-14 62 10 15 57 72 105 125 49 53 108 129 132 168 l44 72 -12 95 c-14 99 -8
156 19 209 20 36 96 108 186 173 92 68 752 732 779 785 6 12 11 35 11 52 0 24
-7 34 -30 46 -66 34 -79 27 -244 -132z m-2486 -123 c222 -36 448 -154 628
-330 94 -92 162 -196 197 -304 25 -76 27 -96 23 -181 -4 -81 -10 -105 -37
-160 -56 -113 -161 -185 -299 -205 -88 -12 -155 -1 -264 45 -137 58 -253 145
-352 264 -171 205 -255 423 -244 636 8 150 49 200 188 231 70 16 82 16 160 4z
m1335 -1593 c83 -74 195 -181 250 -238 131 -135 567 -543 950 -889 82 -74 204
-187 270 -250 66 -63 182 -171 258 -239 76 -68 149 -143 162 -166 33 -56 36
-122 6 -164 -41 -57 -84 -65 -154 -30 -46 24 -87 65 -447 439 -135 140 -310
323 -390 406 -219 227 -440 461 -600 634 -79 85 -243 256 -364 380 -122 124
-270 280 -329 348 l-109 122 23 47 22 46 151 -155 c83 -86 219 -216 301 -291z
m-156 -249 c24 -28 32 -44 25 -53 -53 -72 -284 -325 -425 -464 -55 -55 -148
-156 -324 -351 -71 -80 -238 -255 -371 -390 -133 -135 -283 -294 -334 -353
-51 -59 -105 -114 -121 -122 -15 -8 -53 -15 -85 -15 -50 0 -59 3 -90 34 -29
29 -34 41 -34 83 0 70 33 117 180 253 68 63 195 183 283 265 88 83 242 227
342 320 378 351 454 423 605 569 200 194 281 266 300 265 8 0 30 -19 49 -41z"/>
<path d="M3473 7368 c-44 -21 -55 -113 -27 -209 54 -180 213 -386 394 -509 96
-65 145 -83 225 -84 62 -1 75 2 114 29 24 16 55 30 70 31 16 0 27 7 29 17 3
14 -6 17 -50 17 -97 1 -212 41 -313 109 -104 71 -278 299 -311 407 -8 26 -14
82 -14 126 l0 78 -47 -1 c-27 0 -58 -5 -70 -11z"/>
<path d="M4873 7750 c-158 -16 -347 -66 -447 -117 l-39 -20 31 -18 c17 -11 57
-49 88 -87 31 -37 59 -68 61 -68 3 0 22 9 42 20 111 59 271 92 456 93 111 1
145 -3 230 -26 92 -25 228 -73 283 -100 20 -10 27 -6 66 34 24 25 56 54 72 66
l28 21 -110 52 c-262 124 -517 174 -761 150z"/>
<path d="M6549 7697 c-14 -12 -196 -196 -403 -409 -369 -379 -383 -395 -377
-448 3 -27 50 -60 85 -60 40 0 67 21 201 155 181 181 618 643 631 667 18 31
17 69 -2 96 -22 31 -98 31 -135 -1z"/>
<path d="M3035 7626 c-6 -8 -42 -56 -81 -108 -38 -51 -86 -120 -106 -153 -155
-259 -281 -623 -325 -935 -27 -192 -24 -583 5 -750 44 -259 109 -450 228 -676
114 -219 251 -428 285 -439 13 -5 31 3 55 24 19 17 44 31 54 31 35 0 24 28
-50 130 -138 188 -273 464 -340 695 -56 192 -72 315 -77 585 -4 228 -3 257 21
411 29 183 76 358 136 510 43 108 121 268 151 311 16 21 20 48 22 150 3 98 8
134 25 176 20 49 19 69 -3 38z"/>
<path d="M4740 7216 c0 -3 9 -20 20 -39 48 -81 78 -363 50 -466 -10 -40 -9
-46 14 -80 14 -20 47 -58 74 -84 l49 -48 4 68 c13 214 -5 370 -55 478 -27 59
-156 200 -156 171z"/>
<path d="M6525 6720 c-36 -52 -227 -284 -279 -338 -66 -69 -157 -141 -226
-180 -68 -38 -246 -98 -320 -107 -67 -9 -83 -17 -150 -78 -52 -47 -53 -48 -34
-68 11 -12 40 -38 65 -60 l45 -38 50 24 c27 13 117 43 199 66 164 45 264 83
301 112 13 10 24 15 24 12 0 -4 14 5 31 19 17 14 37 26 45 26 9 0 13 4 10 9
-3 5 6 17 21 26 14 10 54 43 87 74 34 31 99 85 145 120 46 35 86 72 88 82 3
11 9 19 14 19 19 0 8 61 -25 143 -19 46 -40 103 -46 126 -6 22 -14 41 -18 41
-4 0 -16 -13 -27 -30z"/>
<path d="M3465 6392 c-6 -4 -16 -19 -24 -34 -8 -16 -20 -28 -28 -28 -7 0 -13
-4 -13 -9 0 -5 -10 -12 -22 -14 l-23 -4 23 -2 c27 -1 30 -21 2 -21 -12 0 -20
-7 -20 -17 -1 -11 -6 -7 -14 12 -13 29 -14 26 -21 -58 -13 -158 33 -449 100
-634 43 -116 135 -304 174 -353 15 -19 33 -45 40 -57 17 -32 35 -28 57 12 10
19 23 35 27 35 5 0 6 7 3 16 -3 8 -2 12 4 9 6 -3 13 0 16 8 5 14 -31 82 -64
120 -9 10 -17 27 -19 38 -2 10 -19 51 -39 90 -23 48 -47 121 -69 219 -49 213
-59 306 -51 508 6 161 5 172 -11 172 -10 0 -23 -4 -28 -8z"/>
<path d="M6502 6167 c-7 -199 -91 -510 -178 -660 -19 -32 -37 -69 -40 -82 -3
-14 -9 -25 -13 -25 -4 0 -18 -22 -30 -49 l-23 -49 57 -68 c32 -38 60 -71 62
-73 2 -3 11 6 21 20 10 15 18 49 20 89 3 48 9 68 23 81 10 9 19 23 19 32 0 9
5 19 10 22 6 3 10 17 10 30 0 13 6 26 13 29 10 5 10 7 0 12 -19 8 -16 32 7 56
11 12 20 28 20 35 0 7 5 13 10 13 6 0 10 14 10 30 0 17 5 30 10 30 6 0 10 27
10 60 l0 60 30 0 c27 0 30 3 30 33 0 18 7 42 16 53 8 10 13 13 9 7 -3 -7 -2
-13 4 -13 5 0 12 9 16 20 3 11 11 19 17 17 6 -1 12 9 14 23 2 14 9 52 15 86
14 70 7 110 -21 119 -10 3 -27 24 -36 46 -10 21 -24 39 -31 39 -8 0 -16 13
-19 29 -5 25 -25 40 -54 41 -3 0 -6 -42 -8 -93z"/>
<path d="M3984 6141 c13 -20 86 -52 155 -67 61 -13 67 -12 81 4 8 9 27 23 43
29 15 7 27 18 27 24 0 6 9 9 20 6 11 -3 17 -1 14 4 -3 6 -22 7 -41 4 -51 -8
-224 -8 -268 1 -28 5 -36 4 -31 -5z"/>
<path d="M4943 5357 c-37 -39 -152 -157 -254 -262 -102 -104 -212 -219 -243
-255 -32 -36 -74 -80 -94 -98 -34 -31 -35 -33 -16 -47 22 -16 148 -65 170 -65
8 0 13 4 11 9 -3 11 182 201 193 198 4 -1 26 15 48 36 23 20 45 37 50 37 4 0
26 18 47 40 22 22 45 38 52 36 6 -3 21 12 33 32 22 37 22 37 1 18 -40 -36 -21
-5 27 43 51 52 88 97 142 173 l35 49 -67 64 -67 64 -68 -72z"/>
<path d="M7662 4373 c-62 -54 -36 -200 41 -227 102 -37 160 153 69 224 -31 25
-83 26 -110 3z"/>
<path d="M1947 4352 c-38 -40 -44 -81 -18 -135 27 -55 77 -86 118 -71 40 14
73 68 73 121 0 38 -6 51 -34 79 -45 45 -99 48 -139 6z"/>
<path d="M2281 4354 c-62 -79 -23 -214 64 -214 65 0 110 82 86 159 -23 77
-108 108 -150 55z"/>
<path d="M7985 4357 c-51 -44 -44 -153 13 -197 65 -52 152 11 152 111 0 94
-98 144 -165 86z"/>
<path d="M3813 4196 c-13 -6 -23 -14 -23 -18 0 -5 -11 -8 -24 -8 -30 0 -101
-97 -90 -123 16 -42 343 -201 546 -267 128 -42 330 -90 463 -111 125 -20 566
-18 686 4 310 54 684 186 899 316 86 52 120 82 120 107 0 16 -85 82 -116 90
-17 4 -47 -9 -111 -50 -99 -62 -297 -147 -466 -200 -302 -95 -538 -125 -827
-107 -172 12 -381 49 -536 96 -164 50 -444 177 -488 221 -9 8 -16 12 -16 7 0
-4 -5 -1 -10 7 -6 10 -4 20 7 32 18 20 17 20 -14 4z"/>
<path d="M1520 3917 c0 -1 -1 -397 -3 -880 l-2 -878 25 5 c14 3 56 11 93 18
l68 12 -3 447 c-2 246 -2 446 0 444 2 -2 18 -59 37 -127 84 -314 116 -413 142
-440 33 -35 43 -35 82 -2 25 21 38 49 71 152 21 70 55 192 75 272 20 80 38
147 41 149 2 2 1 -186 -3 -419 -6 -383 -5 -423 9 -417 9 3 53 11 98 18 l81 13
-3 718 -3 718 -35 6 c-19 3 -60 12 -90 20 -30 7 -58 10 -62 6 -3 -4 -32 -110
-63 -237 -109 -444 -138 -560 -145 -568 -3 -4 -23 66 -44 155 -21 90 -51 215
-67 278 -15 63 -35 156 -44 205 -33 187 -56 273 -73 280 -20 8 -182 54 -182
52z"/>
<path d="M8360 3889 c-148 -41 -243 -104 -298 -198 l-27 -46 0 -620 0 -620 30
-54 c59 -107 156 -162 291 -165 50 -1 67 4 102 27 23 15 53 44 67 65 l24 37 2
378 c0 208 -1 381 -4 383 -2 3 -64 2 -136 -2 l-131 -7 0 -93 0 -94 45 0 45 0
0 -219 c0 -197 -2 -221 -18 -241 -16 -19 -24 -22 -56 -16 -21 4 -49 18 -62 31
l-24 24 -2 508 c-3 671 -7 611 39 651 51 45 81 51 105 22 16 -19 18 -42 18
-172 l0 -150 26 6 c15 4 38 9 53 11 14 2 43 7 64 10 l38 6 -3 214 c-3 196 -5
215 -23 235 -19 22 -121 101 -127 99 -2 0 -19 -5 -38 -10z"/>
<path d="M7781 3740 l-64 -17 0 -412 c0 -226 -2 -409 -5 -407 -2 3 -10 40 -18
83 -18 102 -178 631 -204 672 -7 12 -16 13 -47 3 -21 -6 -58 -14 -83 -17 l-45
-7 3 -656 c1 -361 4 -657 5 -658 1 -2 42 -6 89 -10 l88 -7 2 368 3 368 43
-154 c59 -213 182 -588 198 -604 12 -11 152 -33 157 -24 2 2 -1 123 -5 269 -4
146 -5 482 -1 748 l8 482 -30 -1 c-16 -1 -59 -9 -94 -19z"/>
<path d="M2468 3090 c2 -371 -1 -647 -7 -702 -6 -51 -9 -93 -7 -95 2 -2 48 3
102 11 165 24 267 36 311 36 62 0 73 17 73 108 l0 77 -107 -7 c-60 -3 -128 -9
-152 -12 l-44 -6 6 112 c4 62 7 152 7 200 l0 87 113 3 112 3 3 86 3 86 -117 6
c-64 4 -118 8 -119 9 -1 2 0 87 3 190 l4 187 25 -10 c33 -12 246 -34 265 -26
12 4 15 21 13 89 l-3 83 -74 13 c-121 21 -387 72 -401 77 -9 4 -11 -121 -9
-605z"/>
<path d="M7115 3609 c-22 -4 -56 -8 -75 -8 l-35 -1 3 -617 c1 -340 6 -621 10
-624 9 -8 144 -28 157 -23 7 3 10 227 10 644 0 563 -2 640 -15 639 -8 -1 -33
-5 -55 -10z"/>
<path d="M3197 3469 c-11 -57 -41 -216 -67 -354 -27 -137 -56 -293 -65 -345
-23 -136 -53 -285 -71 -353 -8 -33 -14 -60 -12 -62 2 -1 43 3 92 9 104 13 98
5 125 165 l17 104 96 3 95 3 19 -125 18 -124 71 0 c90 0 118 8 110 29 -9 22
-49 235 -91 486 -19 116 -45 266 -58 335 -14 69 -30 166 -36 216 l-13 92 -36
5 c-20 3 -67 9 -106 12 l-70 7 -18 -103z m172 -609 c5 -25 8 -47 6 -49 -8 -7
-104 -14 -118 -8 -12 4 -13 15 -6 54 10 57 59 347 60 359 0 5 12 -63 25 -151
13 -88 28 -180 33 -205z"/>
<path d="M6520 3528 c-210 -21 -192 -17 -183 -41 4 -12 8 -260 8 -552 0 -342
4 -533 10 -537 6 -4 47 -8 93 -8 l83 0 -7 205 -7 205 46 0 c52 0 49 5 87 -150
12 -47 32 -126 47 -176 l25 -92 90 -11 c50 -7 92 -10 95 -8 2 2 -1 16 -6 30
-6 15 -36 122 -67 238 l-56 211 25 23 c13 13 35 41 48 62 23 37 24 45 24 233
0 107 -4 212 -8 233 -10 46 -57 101 -108 128 -42 21 -93 23 -239 7z m154 -189
c26 -20 26 -21 26 -160 0 -111 -3 -145 -16 -164 -18 -27 -68 -45 -127 -45
l-38 0 6 182 c3 100 8 184 10 187 5 4 63 15 101 20 6 0 23 -8 38 -20z"/>
<path d="M3716 3494 c9 -30 7 -990 -2 -1057 l-6 -37 134 6 c73 4 175 9 226 13
l94 6 3 83 2 84 -134 -4 -134 -3 3 457 3 456 -40 6 c-22 3 -67 8 -99 12 l-59
7 9 -29z"/>
<path d="M5941 3479 c-52 -5 -95 -10 -96 -11 -2 -2 -15 -73 -30 -158 -15 -85
-58 -312 -96 -504 -38 -192 -69 -358 -69 -368 0 -17 7 -19 87 -16 69 2 88 6
90 18 1 8 7 57 14 108 l12 92 92 0 91 0 18 -114 18 -113 85 -7 c47 -4 87 -5
89 -3 2 2 -3 33 -11 68 -8 35 -26 141 -40 234 -31 197 -73 443 -109 634 -15
73 -26 138 -26 142 0 5 -6 8 -12 8 -7 -1 -55 -6 -107 -10z m62 -636 l5 -43
-55 0 -56 0 7 68 c7 69 34 226 43 252 5 14 43 -174 56 -277z"/>
<path d="M5000 3442 c0 -2 5 -12 11 -24 7 -13 10 -174 9 -509 l-1 -490 87 3
87 3 2 105 c1 58 2 151 3 208 l2 103 88 -3 87 -3 3 -201 2 -201 47 -7 c25 -3
64 -6 87 -6 l41 0 1 473 c0 259 4 491 7 515 l7 42 -105 0 c-101 0 -105 -1 -95
-19 9 -19 15 -402 6 -412 -2 -2 -45 -3 -96 -1 l-91 3 2 210 2 209 -97 3 c-53
2 -96 1 -96 -1z"/>
<path d="M4525 3424 c-52 -19 -113 -79 -125 -124 -13 -47 -13 -175 1 -224 13
-47 77 -118 184 -201 121 -95 128 -105 133 -178 3 -52 0 -66 -18 -89 -42 -54
-132 -22 -147 52 -5 26 -10 31 -27 26 -12 -3 -47 -6 -78 -6 l-58 0 0 -50 c0
-61 15 -92 67 -141 50 -48 86 -65 153 -74 114 -14 211 31 255 118 22 45 25 63
25 161 0 143 -13 166 -152 274 -57 43 -120 98 -140 120 -33 36 -38 49 -38 90
0 28 7 57 16 71 15 21 23 23 71 19 63 -5 73 -16 73 -75 l0 -43 85 0 85 0 0 65
c0 36 -6 80 -14 98 -15 38 -76 94 -122 113 -43 18 -177 17 -229 -2z"/>
<path d="M3327 2122 c-21 -23 -31 -106 -22 -196 6 -69 8 -75 32 -81 37 -9 48
8 47 71 0 29 3 54 8 54 4 0 17 -18 28 -40 19 -38 22 -40 41 -26 11 7 31 29 45
47 l24 33 0 -51 c0 -72 6 -83 46 -83 l34 0 0 134 0 134 -32 11 c-17 6 -32 10
-33 9 -1 -2 -21 -30 -45 -62 l-43 -59 -22 37 c-28 46 -65 86 -80 86 -7 0 -19
-8 -28 -18z"/>
<path d="M3776 2079 c-8 -78 -8 -187 0 -217 6 -22 10 -23 108 -20 l101 3 -4
30 c-4 38 -15 45 -74 45 -41 0 -48 3 -45 18 2 12 15 18 48 20 53 4 64 12 55
41 -5 16 -15 21 -41 21 -69 0 -103 39 -36 41 77 3 97 11 97 44 l0 30 -101 3
-101 3 -7 -62z"/>
<path d="M4212 2113 c-6 -15 -27 -70 -46 -122 -20 -51 -36 -104 -36 -117 0
-21 5 -24 35 -24 31 0 35 3 35 25 0 23 3 25 49 25 45 0 50 -2 60 -30 10 -30
33 -38 60 -21 18 12 10 51 -37 182 l-37 104 -37 3 c-31 3 -37 0 -46 -25z"/>
<path d="M4547 2133 c-3 -5 -6 -69 -8 -143 l-4 -135 98 -3 97 -3 0 41 0 40
-60 0 -60 0 0 105 0 105 -29 0 c-17 0 -32 -3 -34 -7z"/>
<path d="M5326 2109 c-8 -40 -8 -106 1 -191 5 -63 8 -68 30 -68 27 0 43 31 43
86 0 32 2 34 34 34 30 0 34 -4 40 -31 3 -17 6 -42 6 -55 0 -13 5 -24 10 -24 6
0 10 53 10 140 0 87 -4 140 -10 140 -5 0 -10 -22 -10 -50 l0 -50 -46 0 -47 0
6 44 c5 34 3 45 -9 50 -35 13 -51 6 -58 -25z"/>
<path d="M5721 2118 c-63 -177 -82 -240 -77 -253 9 -23 42 -18 60 10 13 20 25
25 55 25 30 0 42 -5 55 -25 18 -27 60 -34 69 -12 5 14 -69 244 -85 265 -18 21
-67 15 -77 -10z"/>
<path d="M6036 2132 c-12 -19 -16 -113 -9 -192 l8 -85 33 -3 32 -3 1 73 c0 61
2 70 12 54 7 -10 22 -31 35 -45 l22 -26 29 33 28 33 7 -32 c3 -17 6 -44 6 -60
0 -26 3 -29 35 -29 l36 0 -3 143 -3 142 -30 2 c-26 3 -35 -4 -69 -53 -21 -31
-41 -52 -45 -47 -4 4 -24 29 -45 56 -34 43 -67 59 -80 39z"/>
<path d="M6510 2131 c-31 -9 -38 -34 -39 -146 -1 -143 -7 -136 113 -133 l101
3 0 30 0 30 -62 -4 c-62 -3 -63 -3 -63 23 0 25 3 26 53 26 61 0 67 3 60 31 -4
14 -14 19 -42 19 -53 0 -79 10 -84 31 -4 16 2 18 66 21 60 3 72 6 75 21 7 37
-26 57 -92 56 -34 -1 -72 -4 -86 -8z"/>
<path d="M2520 2032 c-71 -7 -95 -71 -42 -112 26 -22 32 -22 276 -18 l249 4
23 28 c31 35 30 51 -2 83 l-25 25 -222 -3 c-122 -2 -238 -5 -257 -7z"/>
<path d="M6985 2015 c-30 -29 -32 -55 -6 -86 l19 -24 287 0 287 0 19 24 c27
33 24 66 -7 90 -26 20 -39 21 -301 21 l-274 0 -24 -25z"/>
</g>
</svg>
